<svg width="30" height="15" viewBox="0 0 30 15" fill="none" xmlns="http://www.w3.org/2000/svg">
<path d="M29.9999 2.48812C30.0009 2.80823 29.9303 3.1245 29.7931 3.41372C29.6559 3.70293 29.4557 3.95773 29.2071 4.1594L16.3511 14.5084C15.9678 14.8236 15.4868 14.9958 14.9906 14.9958C14.4943 14.9958 14.0134 14.8236 13.63 14.5084L0.774039 3.79514C0.336473 3.43145 0.061304 2.90884 0.00906665 2.34226C-0.0431707 1.77569 0.131803 1.21157 0.495494 0.774C0.859185 0.336434 1.3818 0.0612659 1.94838 0.00902843C2.51495 -0.0432091 3.07907 0.131763 3.51664 0.495455L15.0013 10.0731L26.4859 0.816854C26.8004 0.554844 27.1834 0.38841 27.5895 0.337244C27.9957 0.286077 28.408 0.352322 28.7776 0.528139C29.1473 0.703957 29.4589 0.981988 29.6755 1.32933C29.8921 1.67668 30.0046 2.0788 29.9999 2.48812Z" fill="#292929"/>
</svg>
